<svg width="81" xmlns="http://www.w3.org/2000/svg" viewBox="0 0 81 81"><path fill="#4EB242" d="M40.6.5C18.512.5.6 18.404.6 40.5c0 22.088 17.912 40 40 40 22.096 0 40-17.904 40-40S62.696.5 40.6.5z"/><path fill="#FFF" d="M50.535 32.753c.244 0 .488.009.732.017-1.29-6.948-8.512-12.27-17.233-12.27-9.628 0-17.434 6.49-17.434 14.485 0 4.682 2.675 8.853 6.84 11.5l.156.104-1.681 5.244 6.307-3.184.296.087c1.735.476 3.59.735 5.516.735.392 0 .784-.017 1.176-.043a11.154 11.154 0 01-.558-3.453c0-7.303 7.118-13.222 15.883-13.222zm-10.437-5.105c1.35 0 2.448 1.055 2.448 2.353 0 1.298-1.098 2.354-2.448 2.354-1.35 0-2.449-1.056-2.449-2.354s1.098-2.353 2.449-2.353zM27.97 32.355c-1.35 0-2.449-1.056-2.449-2.354s1.099-2.353 2.449-2.353c1.35 0 2.448 1.055 2.448 2.353 0 1.298-1.098 2.354-2.448 2.354z"/><path fill="#FFF" d="M64.6 46.156c0-6.806-6.568-12.323-14.662-12.323-8.103 0-14.671 5.517-14.671 12.323s6.568 12.322 14.67 12.322c1.623 0 3.185-.218 4.642-.627.087-.018.252-.07.252-.07l5.301 2.719-1.414-4.462.139-.087c3.496-2.257 5.752-5.804 5.743-9.795zm-19.764-2.231c-1.136 0-2.056-.898-2.056-2.004 0-1.107.92-2.005 2.056-2.005 1.145 0 2.065.898 2.065 2.005 0 1.106-.928 2.004-2.065 2.004zm10.212 0c-1.137 0-2.056-.898-2.056-2.004 0-1.107.92-2.005 2.056-2.005 1.137 0 2.056.898 2.064 2.005 0 1.106-.927 2.004-2.064 2.004z"/></svg>